<?xml version="1.0" encoding="UTF-8"?>
<svg width="1000" height="1000" xmlns="http://www.w3.org/2000/svg">
  <style>
    .title { font: bold 14px sans-serif; }
    .box { fill: #f0f8ff; stroke: #4682b4; stroke-width: 2; }
    .arrow { stroke: #4682b4; stroke-width: 2; marker-end: url(#arrowhead); }
    .text { font: 12px sans-serif; }
    .small-text { font: 10px sans-serif; }
    .db { fill: #e6e6fa; stroke: #483d8b; stroke-width: 2; }
    .process { fill: #e0ffff; stroke: #20b2aa; stroke-width: 2; }
    .decision { fill: #ffe4e1; stroke: #cd5c5c; stroke-width: 2; }
    .recovery { fill: #98fb98; stroke: #228b22; stroke-width: 2; }
  </style>

  <defs>
    <marker id="arrowhead" markerWidth="10" markerHeight="7" refX="9" refY="3.5" orient="auto">
      <polygon points="0 0, 10 3.5, 0 7" fill="#4682b4"/>
    </marker>
  </defs>

  <!-- 标题 -->
  <text x="500" y="30" class="title" text-anchor="middle">消息生命周期流程图</text>

  <!-- 开始 -->
  <rect x="450" y="50" width="100" height="40" rx="20" class="box"/>
  <text x="500" y="75" class="text" text-anchor="middle">开始</text>

  <!-- 消息生成 -->
  <rect x="400" y="120" width="200" height="60" rx="10" class="process"/>
  <text x="500" y="150" class="text" text-anchor="middle">消息生成</text>
  <text x="500" y="170" class="small-text" text-anchor="middle">(生成唯一ID和消息内容)</text>

  <!-- 消息入库 -->
  <rect x="50" y="220" width="200" height="60" rx="10" class="db"/>
  <text x="150" y="250" class="text" text-anchor="middle">消息记录表</text>
  <text x="150" y="270" class="small-text" text-anchor="middle">(记录所有生成的消息)</text>

  <!-- 发送消息 -->
  <rect x="400" y="220" width="200" height="60" rx="10" class="process"/>
  <text x="500" y="250" class="text" text-anchor="middle">发送消息</text>
  <text x="500" y="270" class="small-text" text-anchor="middle">(通过MQ发送消息)</text>

  <!-- 消费消息 -->
  <rect x="400" y="320" width="200" height="60" rx="10" class="process"/>
  <text x="500" y="350" class="text" text-anchor="middle">消费消息</text>
  <text x="500" y="370" class="small-text" text-anchor="middle">(业务处理)</text>

  <!-- 消费成功？ -->
  <polygon points="450,420 550,420 500,480" class="decision"/>
  <text x="500" y="445" class="text" text-anchor="middle">消费成功？</text>

  <!-- 更新消费状态 -->
  <rect x="700" y="420" width="200" height="60" rx="10" class="db"/>
  <text x="800" y="450" class="text" text-anchor="middle">更新消费状态</text>
  <text x="800" y="470" class="small-text" text-anchor="middle">(标记消息已消费)</text>

  <!-- 重试次数判断 -->
  <polygon points="450,520 550,520 500,580" class="decision"/>
  <text x="500" y="545" class="text" text-anchor="middle">超过最大重试次数？</text>

  <!-- 失败消息表 -->
  <rect x="700" y="520" width="200" height="60" rx="10" class="db"/>
  <text x="800" y="550" class="text" text-anchor="middle">失败消息表</text>
  <text x="800" y="570" class="small-text" text-anchor="middle">(记录重试失败的消息)</text>

  <!-- 重试消息 -->
  <rect x="400" y="620" width="200" height="60" rx="10" class="process"/>
  <text x="500" y="650" class="text" text-anchor="middle">重试消息</text>
  <text x="500" y="670" class="small-text" text-anchor="middle">(延迟重试)</text>

  <!-- 消息恢复处理 -->
  <rect x="700" y="620" width="200" height="60" rx="10" class="recovery"/>
  <text x="800" y="650" class="text" text-anchor="middle">消息恢复处理</text>
  <text x="800" y="670" class="small-text" text-anchor="middle">(手动触发)</text>

  <!-- 重新投递到新Topic -->
  <rect x="700" y="720" width="200" height="60" rx="10" class="recovery"/>
  <text x="800" y="750" class="text" text-anchor="middle">重新投递到新Topic</text>
  <text x="800" y="770" class="small-text" text-anchor="middle">(指定新的Topic)</text>

  <!-- 结束 -->
  <rect x="450" y="820" width="100" height="40" rx="20" class="box"/>
  <text x="500" y="845" class="text" text-anchor="middle">结束</text>

  <!-- 连接线 -->
  <line x1="500" y1="90" x2="500" y2="120" class="arrow"/>
  <line x1="500" y1="180" x2="500" y2="220" class="arrow"/>
  <line x1="400" y1="250" x2="250" y2="250" class="arrow"/>
  <line x1="500" y1="280" x2="500" y2="320" class="arrow"/>
  <line x1="500" y1="380" x2="500" y2="420" class="arrow"/>
  <line x1="550" y1="445" x2="700" y2="445" class="arrow"/>
  <text x="625" y="435" class="small-text">是</text>
  <line x1="500" y1="480" x2="500" y2="520" class="arrow"/>
  <text x="480" y="500" class="small-text">否</text>
  <line x1="550" y1="545" x2="700" y2="545" class="arrow"/>
  <text x="625" y="535" class="small-text">是</text>
  <line x1="500" y1="580" x2="500" y2="620" class="arrow"/>
  <text x="480" y="600" class="small-text">否</text>
  <line x1="500" y1="680" x2="500" y2="820" class="arrow"/>
  <path d="M 400 650 C 350 650 350 250 400 250" class="arrow" fill="none"/>
  
  <!-- 失败消息恢复流程 -->
  <line x1="800" y1="580" x2="800" y2="620" class="arrow"/>
  <line x1="800" y1="680" x2="800" y2="720" class="arrow"/>
  <path d="M 700 750 C 350 750 350 250 400 250" class="arrow" fill="none"/>
</svg>